<svg width="18" height="20" viewBox="0 0 18 20" fill="none" xmlns="http://www.w3.org/2000/svg">
<path fill-rule="evenodd" clip-rule="evenodd" d="M17.3536 7.35355L15.3536 9.35355L14.6464 8.64645L16.6464 6.64645L17.3536 7.35355ZM13.3536 11.3536L5.35355 19.3536L4.64645 18.6464L12.6464 10.6464L13.3536 11.3536Z" fill="black" fill-opacity="0.6"/>
<path d="M13.1936 5.95346C13.0897 4.80456 12.2586 3.96899 11.1158 3.86455C12.2586 3.7601 13.0897 2.92454 13.1936 1.77563C13.2975 2.92454 14.1285 3.7601 15.2713 3.86455C14.1285 3.96899 13.2975 4.80456 13.1936 5.95346Z" fill="black" fill-opacity="0.6"/>
<path d="M8.62265 9.39999C8.51876 8.25109 7.68767 7.41552 6.54492 7.31108C7.68767 7.20663 8.51876 6.37107 8.62265 5.22217C8.72653 6.37107 9.55762 7.20663 10.7004 7.31108C9.55762 7.41552 8.62265 8.25109 8.62265 9.39999Z" fill="black" fill-opacity="0.6"/>
<path d="M7.06442 4.17782C6.96053 3.02892 6.12944 2.19336 4.98669 2.08891C6.12944 1.98447 6.96053 1.1489 7.06442 0C7.1683 1.1489 7.99939 1.98447 9.14214 2.08891C7.99939 2.19336 7.06442 3.02892 7.06442 4.17782Z" fill="black" fill-opacity="0.6"/>
<path d="M2.07772 6.26681C1.97384 5.11791 1.14275 4.28235 0 4.1779C1.14275 4.07345 1.97384 3.23789 2.07772 2.08899C2.18161 3.23789 3.0127 4.07345 4.15545 4.1779C3.0127 4.28235 2.18161 5.11791 2.07772 6.26681Z" fill="black" fill-opacity="0.6"/>
</svg>
