<svg width="18" height="19" viewBox="0 0 18 19" fill="none" xmlns="http://www.w3.org/2000/svg">
<path fill-rule="evenodd" clip-rule="evenodd" d="M9 7C10.6569 7 12 5.65685 12 4C12 2.34315 10.6569 1 9 1C7.34315 1 6 2.34315 6 4C6 5.65685 7.34315 7 9 7ZM12 13L6 13C3.23859 13 1.00002 15.2386 1.00001 18L17 18C17 15.2386 14.7614 13 12 13ZM9 8C11.2091 8 13 6.20914 13 4C13 1.79086 11.2091 0 9 0C6.79086 0 5 1.79086 5 4C5 6.20914 6.79086 8 9 8ZM6 12C2.68631 12 2.18183e-05 14.6863 5.058e-06 18L0 19H18V18C18 14.6863 15.3137 12 12 12L6 12Z" fill="black" fill-opacity="0.6"/>
</svg>
